<svg width="103" height="104" viewBox="0 0 103 104" fill="none" xmlns="http://www.w3.org/2000/svg">
<rect y="0.718323" width="103" height="103" rx="35" fill="#F5D009"/>
<path fill-rule="evenodd" clip-rule="evenodd" d="M70.9709 42.4446L74.3318 39.0837C76.1084 37.3072 76.1083 34.4268 74.3318 32.6503L70.9709 29.2894C70.2095 28.528 68.9751 28.528 68.2137 29.2894C67.4523 30.0507 67.4523 31.2852 68.2137 32.0466L71.5746 35.4075C71.8284 35.6613 71.8284 36.0727 71.5746 36.3265L68.2137 39.6874C67.4523 40.4488 67.4523 41.6833 68.2137 42.4446C68.9751 43.206 70.2095 43.206 70.9709 42.4446ZM74.7913 72.2603V67.9816C74.7913 65.8557 73.497 63.944 71.5232 63.1544L66.2354 61.0393C63.7248 60.0351 60.8636 61.1229 59.6544 63.5414L59.1942 64.4617C59.1942 64.4617 52.6954 63.1619 47.4964 57.9629C42.2974 52.7639 40.9976 46.2651 40.9976 46.2651L41.9179 45.8049C44.3364 44.5957 45.4242 41.7345 44.42 39.2239L42.3049 33.9361C41.5153 31.9623 39.6036 30.668 37.4777 30.668H33.199C30.3277 30.668 28 32.9956 28 35.867C28 58.8378 46.6215 77.4593 69.5923 77.4593C72.4636 77.4593 74.7913 75.1316 74.7913 72.2603ZM60.5728 42.4446C59.8114 43.206 58.577 43.206 57.8156 42.4446C57.0542 41.6833 57.0542 40.4488 57.8156 39.6874L59.6864 37.8166H53.9952C52.9184 37.8166 52.0455 36.9438 52.0455 35.867C52.0455 34.7902 52.9184 33.9174 53.9952 33.9174H59.6864L57.8156 32.0466C57.0542 31.2852 57.0542 30.0507 57.8156 29.2894C58.577 28.528 59.8114 28.528 60.5728 29.2894L63.9337 32.6503C65.7103 34.4268 65.7103 37.3072 63.9337 39.0837L60.5728 42.4446Z" fill="black"/>
</svg>
